<svg xmlns="http://www.w3.org/2000/svg" viewBox="0 0 960 760" role="img" aria-labelledby="title desc">
  <title id="title">KidsAI learning workspace</title>
  <desc id="desc">A bright child-friendly workspace with activity cards, prompt blocks, and safety checks.</desc>
  <rect width="960" height="760" fill="#f8faf7"/>
  <rect x="72" y="70" width="816" height="620" rx="24" fill="#ffffff" stroke="#17212b" stroke-width="8"/>
  <rect x="116" y="118" width="310" height="220" rx="18" fill="#d7f2e5" stroke="#17212b" stroke-width="7"/>
  <rect x="468" y="118" width="376" height="84" rx="18" fill="#ffd166" stroke="#17212b" stroke-width="7"/>
  <rect x="468" y="230" width="376" height="108" rx="18" fill="#eaf4ff" stroke="#17212b" stroke-width="7"/>
  <rect x="116" y="382" width="728" height="78" rx="18" fill="#fff4ef" stroke="#17212b" stroke-width="7"/>
  <rect x="116" y="496" width="204" height="108" rx="18" fill="#4c7fd9" stroke="#17212b" stroke-width="7"/>
  <rect x="378" y="496" width="204" height="108" rx="18" fill="#ff7b67" stroke="#17212b" stroke-width="7"/>
  <rect x="640" y="496" width="204" height="108" rx="18" fill="#d7f2e5" stroke="#17212b" stroke-width="7"/>
  <circle cx="226" cy="218" r="58" fill="#ffd166" stroke="#17212b" stroke-width="7"/>
  <path d="M190 231c22 30 55 31 77 0" fill="none" stroke="#17212b" stroke-width="7" stroke-linecap="round"/>
  <circle cx="207" cy="207" r="8" fill="#17212b"/>
  <circle cx="247" cy="207" r="8" fill="#17212b"/>
  <path d="M323 178h54M323 218h54M323 258h34" stroke="#17212b" stroke-width="12" stroke-linecap="round"/>
  <path d="M512 160h214M512 276h280M512 306h178M156 424h628" stroke="#17212b" stroke-width="13" stroke-linecap="round"/>
  <path d="M166 548h104M428 548h104M690 548h104" stroke="#ffffff" stroke-width="13" stroke-linecap="round"/>
  <path d="M180 582h76M442 582h76M704 582h76" stroke="#ffffff" stroke-width="9" stroke-linecap="round"/>
  <path d="M729 146l24 24 48-52" fill="none" stroke="#20755a" stroke-width="15" stroke-linecap="round" stroke-linejoin="round"/>
  <path d="M734 256l20 20 36-46" fill="none" stroke="#20755a" stroke-width="12" stroke-linecap="round" stroke-linejoin="round"/>
</svg>
